# xmcd CD database file
#
# Track frame offsets:
#	150
#	12350
#	25605
#	37942
#	49845
#	63690
#	77535
#	89537
#	100672
#	111830
#	123507
#	135315
#	147497
#	158665
#	169747
#	184520
#	197680
#	211437
#	223120
#	234390
#	244900
#	257282
#	267870
#	279292
#	290765
#	301742
#	313312
#	327217
#	340807
#
# Disc length: 4706 seconds
#
# Revision: 2
# Processed by: cddbd v1.5.2PL0 Copyright (c) Steve Scherf et al.
# Submitted via: CDex 1.60beta1
#
DISCID=9b12601d
DTITLE=Kenny Roberts - Jumpin' and Yodelin'
DYEAR=1996
DGENRE=Country
TTITLE0=Broken Teen Age Heart
TTITLE1=Newsboy
TTITLE2=I'm Looking For The Bully Of The Town
TTITLE3=The Arizona Yodeler
TTITLE4=I Never See Maggie Alone
TTITLE5=Wedding Bells
TTITLE6=Boogie Woogie Yodel Song
TTITLE7=One Way Ticket
TTITLE8=I Believe I'm Entitled To You
TTITLE9=I Miss My Swiss
TTITLE10=I'd Like To Kiss Susie Again
TTITLE11=A Might Pretty Waltz
TTITLE12=The Yodel Polka
TTITLE13=Ding Dong Bells (Are Ringing Again)
TTITLE14=When I'd Yoo-Hoo In The Valley
TTITLE15=Choo Choo Ch'Boogie
TTITLE16=She Taught Me How To Yodel
TTITLE17=FOB Tennessee
TTITLE18=Billy And Nanny Goat
TTITLE19=The Same Ol' Tune
TTITLE20=Hillbilly Style
TTITLE21=Cry Baby Blues
TTITLE22=River Of Tears
TTITLE23=I've Got The Blues
TTITLE24=Choc'late Ice Cream Cone
TTITLE25=Honey Tonk Sweetheart
TTITLE26=Hillybilly Fever
TTITLE27=Just A Yodel For Me
TTITLE28=I Finally Got Maggie Alone
EXTD=YEAR: 1996
EXTT0=
EXTT1=
EXTT2=
EXTT3=
EXTT4=
EXTT5=
EXTT6=
EXTT7=
EXTT8=
EXTT9=
EXTT10=
EXTT11=
EXTT12=
EXTT13=
EXTT14=
EXTT15=
EXTT16=
EXTT17=
EXTT18=
EXTT19=
EXTT20=
EXTT21=
EXTT22=
EXTT23=
EXTT24=
EXTT25=
EXTT26=
EXTT27=
EXTT28=
PLAYORDER=
